# xmcd
#
# Track frame offsets:
#	150
#	14296
#	26665
#	38276
#	50749
#	63195
#	76221
#	90658
#	108482
#	121672
#	135836
#	146383
#	162877
#	179829
#	199516
#	216222
#	232763
#	249586
#	267113
#	286667
#
# Disc length: 3990 seconds
#
# Revision: 1
# Processed by: cddbd v1.5.2PL0 Copyright (c) Steve Scherf et al.
# Submitted via: audiograbber 1.83.01
#
DISCID=fe0f9414
DTITLE=Albert King - The Very Best Of
DYEAR=2007
DGENRE=Blues
TTITLE0=Laundromat Blues
TTITLE1=Oh, Pretty Woman
TTITLE2=Crosscut Saw
TTITLE3=Born Under A Bad Sign
TTITLE4=Cold Feet
TTITLE5=(I Love) Lucy (With Booker T. and The MGs)
TTITLE6=Blues Power
TTITLE7=Drowning On Dry Land
TTITLE8=Tupelo Pt. 1 (With Pops Staples and Steve Cropper)
TTITLE9=Water (With Pops Staples and Steve Cropper)
TTITLE10=Wrapped Up In Love Again
TTITLE11=Can't You See What You're Doing To Me
TTITLE12=Everybody Wants To Go To Heaven
TTITLE13=Angel Of Mercy
TTITLE14=I'll Play The Blues For You (Pt. 1)
TTITLE15=Breaking Up Somebody's Home
TTITLE16=Playing On Me
TTITLE17=That's What The Blues Is All About
TTITLE18=Flat Tire
TTITLE19=Crosscut Saw
EXTD=
EXTT0=
EXTT1=
EXTT2=
EXTT3=
EXTT4=
EXTT5=
EXTT6=
EXTT7=
EXTT8=
EXTT9=
EXTT10=
EXTT11=
EXTT12=
EXTT13=
EXTT14=
EXTT15=
EXTT16=
EXTT17=
EXTT18=
EXTT19=
PLAYORDER=
